<svg data-v-fde0c5aa="" xmlns="http://www.w3.org/2000/svg" viewBox="0 0 300 300" class="iconLeftSlogan"><!----><defs data-v-fde0c5aa=""><!----></defs><rect data-v-fde0c5aa="" fill="transparent" x="0" y="0" width="300px" height="300px" class="logo-background-square"></rect><defs data-v-fde0c5aa=""><!----></defs><g data-v-fde0c5aa="" id="853b7c71-b570-46a1-809f-497065d2a2f8" fill="#2e3034" transform="matrix(4.031396534146974,0,0,4.031396534146974,173.8893640858471,98.79912826683858)"><path d="M3.04 7.97L2.25 7.97C2.27 7.10 2.30 6.59 2.39 6.30C2.31 6.22 2.16 6.10 1.92 6.10C1.62 6.10 1.41 6.29 1.41 6.59L1.41 7.97L0.64 7.97C0.50 7.97 0.41 8.06 0.39 8.23L0.38 8.50C0.56 8.47 1.04 8.46 1.22 8.46L1.41 8.46L1.41 13.79C1.41 14.67 1.92 15.18 2.72 15.18C3.30 15.18 3.78 14.95 3.78 14.56C3.78 14.46 3.74 14.32 3.64 14.18C3.53 14.39 3.22 14.52 2.94 14.52C2.48 14.52 2.24 14.22 2.24 13.75L2.25 9.04L2.25 8.46L3.78 8.46C3.91 8.46 4.00 8.36 4.02 8.19L4.03 7.92C3.89 7.94 3.18 7.97 3.04 7.97ZM11.77 14.17C11.66 14.38 11.44 14.49 11.28 14.49C10.95 14.49 10.77 14.27 10.77 13.75L10.77 10.79C10.77 8.78 9.90 7.78 8.02 7.78C6.47 7.78 5.46 8.33 5.46 9.45C5.46 10.04 5.82 10.64 6.38 10.64C6.55 10.64 6.79 10.58 6.93 10.39C6.48 10.25 6.29 9.77 6.29 9.41C6.29 8.48 7.18 8.23 7.92 8.23C9.35 8.23 9.93 9.09 9.93 10.75L9.93 11.12C9.16 11.05 8.22 11.12 7.42 11.33C6.02 11.72 5.15 12.49 5.15 13.57C5.15 14.52 5.75 15.18 6.86 15.18C8.15 15.18 9.34 14.31 9.97 12.89L9.97 13.66C9.97 14.66 10.32 15.16 11.06 15.16C11.51 15.16 11.91 14.91 11.91 14.55C11.91 14.43 11.89 14.29 11.77 14.17ZM7.20 14.57C6.36 14.59 6.05 14.03 6.05 13.43C6.05 12.64 6.61 12.08 7.56 11.77C8.19 11.55 9.25 11.45 9.94 11.49C9.91 13.05 8.43 14.55 7.20 14.57ZM18.42 14.03C18.45 14.21 18.33 14.45 18.05 14.45C17.77 14.45 17.57 14.22 17.39 13.90L15.92 11.38L17.49 9.30C17.82 8.83 18.10 8.47 18.44 8.30C18.38 7.94 18.23 7.78 17.95 7.78C17.74 7.78 17.60 7.90 17.50 8.05L15.61 10.82L14.49 8.82C14.14 8.20 13.83 7.78 13.22 7.78C12.63 7.78 12.32 8.15 12.32 8.50C12.32 8.74 12.47 8.92 12.71 8.97C12.70 8.75 12.81 8.54 13.10 8.54C13.36 8.54 13.52 8.71 13.75 9.10L15.06 11.40L13.43 13.71C13.03 14.25 12.77 14.56 12.49 14.69C12.53 15.06 12.74 15.20 12.96 15.20C13.16 15.20 13.30 15.09 13.40 14.94L15.40 11.97L16.65 14.17C16.98 14.77 17.30 15.22 17.93 15.22C18.49 15.22 18.82 14.85 18.82 14.52C18.82 14.25 18.66 14.07 18.42 14.03ZM20.72 6.51C21.07 6.51 21.36 6.22 21.36 5.87C21.36 5.52 21.07 5.22 20.72 5.22C20.37 5.22 20.08 5.52 20.08 5.87C20.08 6.22 20.37 6.51 20.72 6.51ZM21.20 13.58L21.17 8.27C21.17 7.95 20.99 7.78 20.71 7.78C20.47 7.78 20.31 7.90 20.23 7.98C20.33 8.30 20.37 8.81 20.37 9.35L20.38 14.67C20.38 14.98 20.58 15.16 20.85 15.16C21.08 15.16 21.24 15.05 21.34 14.97C21.22 14.63 21.20 14.14 21.20 13.58Z"></path></g><defs data-v-fde0c5aa=""><!----></defs><g data-v-fde0c5aa="" id="00bfce73-d785-41b9-9af3-100048d40c9a" stroke="none" fill="#488eff" transform="matrix(1.360619888395209,0,0,1.360619888395209,33.11321844350622,81.82538332326709)"><switch><g><path d="M42.2 20.7h1.4v1.4h-1.4z"></path><path d="M44.9 22.1h1.3v-1.4h-1.3v-1.3h-1.4v1.3h1.4zM47.6 20.7H49v1.4h-1.4zM46.2 19.4h1.4v1.4h-1.4zM51.1 20.7h1.4v1.4h-1.4z"></path><path d="M53.8 22.1h1.3v-1.4h-1.3v-1.3h-1.4v1.3h1.4zM56.5 20.7h1.4v1.4h-1.4zM55.1 19.4h1.4v1.4h-1.4zM92.3 46.2c-1.3-2.1-3.2-3.7-5-4.9 1.3 1.3 2.5 2.9 2.8 4.4.9 0 1.7.2 2.2.5zM12.7 41.2c-1.8 1.2-3.6 2.9-5 4.9.5-.3 1.2-.5 2.1-.5.4-1.5 1.6-3.1 2.9-4.4zM94.4 52c-.8.5-1.6.8-2 .9-1.1.3-1.3.5-1.8 1s-1.1.8-1.9 1c-.7.3-6.6 1.1-8.5 1.4-2 .3-1.5-.9-1.5-.9s.2-2.5.5-4.8c-.8.1-3.5.5-5.7.9.1.3.3.6.3.9.3 2.6.3 5.2 0 7.9H26.3c-.3-2.7-.3-5.3 0-7.9 0-.3.2-.6.3-.9-2.3-.4-5-.8-5.7-.9.3 2.3.5 4.8.5 4.8s.5 1.1-1.5.9c-2-.3-7.8-1.1-8.5-1.4-.7-.3-1.4-.5-1.9-1s-.7-.7-1.8-1c-.4-.1-1.2-.4-2-.9-1.5 8.5-.3 22.2 3 24 3.9 2 26.6 4.8 41.3 4.6 14.8.2 37.4-2.6 41.3-4.6 3.4-1.7 4.6-15.5 3.1-24zM12.2 72.4c-.6.2-1.4-.6-1.6-1.7-.3-1.1 0-2.1.7-2.3.6-.2 1.4.6 1.6 1.7.3 1.1 0 2.1-.7 2.3zm58.6-.1c-.6 1.6-2.3 2.9-3.8 3-11.3 1-22.7 1-34 0-1.5-.1-3.2-1.4-3.8-3-.3-.9-.7-1.8-1-2.7h43.5c-.2.8-.5 1.7-.9 2.7zm18.6-1.6c-.3 1.1-1 1.9-1.6 1.7-.6-.2-.9-1.2-.7-2.3.3-1.1 1-1.9 1.6-1.7.7.2 1 1.2.7 2.3z"></path><path d="M18 38.4c-.3.1-.6.2-1 .4-1.3.9-5.6 4-6.3 6.9 2.7.4 7.7 1.8 7.7 1.8s1.6.7 2.1 2.4v-.1c.2 0 3.8.6 6.4 1 .8-1.1 2.1-1.9 3.4-2.1 13.1-1.3 26.2-1.3 39.3 0 1.2.1 2.5 1 3.4 2.1 2.6-.4 6.2-1 6.4-1v.1c.6-1.7 2.1-2.4 2.1-2.4s5-1.4 7.7-1.8c-.6-2.9-4.9-6-6.3-6.9-.4-.2-.7-.3-1-.4-.1-.1-.2-.3-.4-.6.6 0 4.8.1 4.9-2 .2-2.2-4.6-2.9-6-2.9-.9 0-.8 1.2-.6 2.1h-.2c-1-1.6-2.6-3.7-4.6-6-1.2-1.3-2.6-2.8-4.5-3.9-.3-.1-.5-.2-.8-.3l-.2-.1-.2-.1-.4-.1c-.5-.1-1.1-.2-1.6-.3-1.1-.2-2.2-.3-3.3-.4-.5-.1-1-.1-1.6-.1l-2.9-4.1c-.7-1-1.9-1.6-3.1-1.6h-13c-1.2 0-2.4.6-3.1 1.6l-2.9 4.1c-.5 0-1 .1-1.5.1-1.1.1-2.2.3-3.3.4-.5.1-1.1.2-1.6.3l-.4.1h-.1-.1l-.2.1c-.2.1-.5.2-.7.3-1 .6-1.8 1.2-2.6 1.9l-2 2c-1.2 1.4-2.2 2.7-3.1 3.8-.6.8-1.2 1.6-1.6 2.3H20c.2-.9.3-2.2-.6-2.1-1.4.1-6.1.7-6 2.9.2 2.1 4.3 2 4.9 2v.1c-.1.2-.2.4-.3.5zm23-18.6c.6-.8 1.5-1.3 2.5-1.3h13c1 0 2 .5 2.5 1.3l2.6 3.7-4.5-.3c-2.3-.1-4.7-.2-7.1-.2-2.4 0-4.8.1-7.1.1l-4.5.3 2.6-3.6zM21.5 37.1c.5-.9 1.1-2 1.9-3.2.8-1.2 1.7-2.6 2.8-3.9.5-.7 1.1-1.4 1.8-2 .6-.7 1.4-1.3 2.1-1.8.2-.1.5-.2.7-.3l.2-.1h.1l.4-.1c.5-.2 1-.3 1.5-.4 1-.2 2.1-.4 3.2-.5 2.2-.3 4.5-.5 6.8-.6 2.3-.2 4.7-.2 7-.2 4.7 0 9.5.2 13.9.8 1.1.1 2.2.3 3.2.5s2.1.5 2.8.9c1.6 1 2.9 2.5 3.9 3.8 1.1 1.4 2 2.7 2.8 3.9.8 1.2 1.4 2.3 1.9 3.2.1.2.2.3.2.4-8.3-1.7-28.5-2.1-28.8-2.1-.3 0-20.3.4-28.7 2 .2-.1.3-.2.3-.3zM92 76.8c-1.7.9-6.7 1.9-13 2.7.8 1.2 1.9 2.3 1.9 2.3s4.2.7 8.6 0c2.3-.3 3.2-3.3 3.5-6.1-.2.6-.6.9-1 1.1zM6.9 75.8c.4 2.8 1.3 5.8 3.5 6.1 4.5.7 8.6 0 8.6 0s1.2-1.1 1.9-2.3c-6.3-.9-11.4-1.8-13-2.7-.3-.3-.7-.6-1-1.1z"></path></g></switch></g><defs data-v-fde0c5aa=""><!----></defs><g data-v-fde0c5aa="" id="89baadd0-24e6-4f29-ae0d-1a9bb42a3c9e" fill="#2e3034" transform="matrix(0.6321751205216765,0,0,0.6321751205216765,175.18106830812064,168.80412784650068)"><path d="M0.87 3.64L0.38 3.64L0.39 3.08L3.98 3.08L3.98 3.64L3.34 3.64L3.34 3.64Q2.97 3.64 2.85 3.72L2.85 3.72L2.85 3.72Q2.74 3.80 2.74 4.16L2.74 4.16L2.74 11.22L2.74 11.22Q2.74 11.57 2.83 11.67L2.83 11.67L2.83 11.67Q2.91 11.77 3.21 11.77L3.21 11.77L3.21 11.77Q6.08 11.74 6.73 11.63L6.73 11.63L6.73 11.63Q6.95 11.61 7.03 11.39L7.03 11.39L7.03 11.39Q7.11 11.17 7.31 10.05L7.31 10.05L7.80 10.08L7.33 12.41L0.57 12.41L0.56 11.87L0.95 11.87L0.95 11.87Q1.46 11.87 1.52 11.80L1.52 11.80L1.52 11.80Q1.61 11.72 1.61 11.33L1.61 11.33L1.61 4.09L1.61 4.09Q1.61 3.80 1.46 3.72L1.46 3.72L1.46 3.72Q1.31 3.64 0.87 3.64L0.87 3.64ZM15.54 3.64L15.53 3.08L22.74 3.08L22.74 3.08Q22.76 4.14 22.81 5.28L22.81 5.28L22.26 5.30L22.26 5.30Q22.25 4.66 22.20 4.25L22.20 4.25L22.20 4.25Q22.16 3.89 22.10 3.80L22.10 3.80L22.10 3.80Q22.05 3.71 21.93 3.69L21.93 3.69L21.93 3.69Q21.83 3.68 21.25 3.68L21.25 3.68L18.87 3.68L18.87 3.68Q18.32 3.68 18.18 3.77L18.18 3.77L18.18 3.77Q18.05 3.86 18.05 4.33L18.05 4.33L18.05 6.28L18.05 6.28Q18.05 6.69 18.11 6.76L18.11 6.76L18.11 6.76Q18.18 6.84 18.52 6.84L18.52 6.84L20.63 6.84L20.63 6.84Q20.99 6.84 21.08 6.73L21.08 6.73L21.08 6.73Q21.16 6.63 21.16 6.14L21.16 6.14L21.16 5.61L21.68 5.63L21.68 8.97L21.16 8.97L21.16 8.24L21.16 8.24Q21.16 7.66 21.09 7.57L21.09 7.57L21.09 7.57Q21.01 7.46 20.66 7.46L20.66 7.46L18.56 7.46L18.56 7.46Q18.22 7.46 18.14 7.54L18.14 7.54L18.14 7.54Q18.05 7.63 18.05 7.89L18.05 7.89L18.05 11.20L18.05 11.20Q18.05 11.57 18.14 11.67L18.14 11.67L18.14 11.67Q18.22 11.77 18.50 11.77L18.50 11.77L18.50 11.77Q21.42 11.75 21.94 11.69L21.94 11.69L21.94 11.69Q22.46 11.63 22.54 11.38L22.54 11.38L22.55 11.36L22.56 11.35L22.78 10.17L23.26 10.25L22.91 12.41L15.81 12.41L15.81 11.87L16.18 11.87L16.18 11.87Q16.74 11.87 16.82 11.80L16.82 11.80L16.82 11.80Q16.92 11.72 16.92 11.33L16.92 11.33L16.92 4.24L16.92 4.24Q16.92 3.82 16.77 3.73L16.77 3.73L16.77 3.73Q16.60 3.64 15.94 3.64L15.94 3.64L15.54 3.64ZM31.42 5.35L30.92 5.33L30.92 5.33Q31.04 4.17 31.12 3.08L31.12 3.08L39.20 3.08L39.20 3.08Q39.12 4.13 39.09 4.53L39.09 4.53L39.09 4.53Q39.05 5.26 39.03 5.32L39.03 5.32L38.53 5.30L38.53 5.30Q38.62 4.34 38.62 4.16L38.62 4.16L38.62 4.16Q38.62 3.88 38.47 3.79L38.47 3.79L38.47 3.79Q38.30 3.69 37.90 3.69L37.90 3.69L36.29 3.69L36.29 3.69Q35.79 3.69 35.66 3.79L35.66 3.79L35.66 3.79Q35.57 3.87 35.56 4.36L35.56 4.36L35.56 11.22L35.56 11.22Q35.56 11.66 35.70 11.76L35.70 11.76L35.70 11.76Q35.86 11.87 36.37 11.87L36.37 11.87L36.93 11.87L36.95 12.41L33.26 12.40L33.26 11.87L33.48 11.87L33.48 11.87Q34.15 11.87 34.29 11.79L34.29 11.79L34.29 11.79Q34.43 11.70 34.43 11.28L34.43 11.28L34.43 4.48L34.43 4.48Q34.43 3.92 34.33 3.80L34.33 3.80L34.33 3.80Q34.23 3.69 33.81 3.69L33.81 3.69L32.34 3.69L32.34 3.69Q32.16 3.69 32.09 3.71L32.09 3.71L32.09 3.71Q32.02 3.72 31.91 3.72L31.91 3.72L31.91 3.72Q31.88 3.72 31.77 3.79L31.77 3.79L31.77 3.79Q31.68 3.84 31.66 3.86L31.66 3.86L31.66 3.86Q31.63 3.88 31.59 3.99L31.59 3.99L31.59 3.99Q31.56 4.05 31.53 4.14L31.53 4.14L31.53 4.14Q31.51 4.21 31.49 4.36L31.49 4.36L31.49 4.36Q31.46 4.59 31.46 4.61L31.46 4.61L31.46 4.61Q31.46 4.80 31.45 4.95L31.45 4.95L31.45 4.95Q31.45 5.02 31.44 5.15L31.44 5.15L31.44 5.15Q31.43 5.29 31.42 5.35L31.42 5.35ZM46.90 5.60L46.90 5.60L46.90 5.60Q46.90 5.40 47.24 4.48L47.24 4.48L47.24 4.48Q47.29 4.31 47.43 3.79L47.43 3.79L47.62 3.13L47.62 3.13Q47.68 2.88 47.78 2.63L47.78 2.63L47.78 2.63Q47.88 2.40 48.04 2.26L48.04 2.26L48.04 2.26Q48.19 2.14 48.38 2.14L48.38 2.14L48.38 2.14Q48.60 2.14 48.71 2.29L48.71 2.29L48.71 2.29Q48.80 2.43 48.81 2.60L48.81 2.60L48.81 2.60Q48.81 2.78 48.65 3.13L48.65 3.13L48.65 3.13Q48.56 3.36 48.18 3.99L48.18 3.99L48.18 3.99Q47.93 4.40 47.78 4.69L47.78 4.69L47.78 4.69Q47.74 4.76 47.71 4.83L47.71 4.83L47.71 4.83Q47.69 4.89 47.66 4.95L47.66 4.95L47.66 4.95Q47.63 5.01 47.57 5.11L47.57 5.11L47.57 5.11Q47.46 5.32 47.42 5.41L47.42 5.41L47.42 5.41Q47.41 5.46 47.36 5.53L47.36 5.53L47.36 5.53Q47.31 5.60 47.29 5.61L47.29 5.61L47.29 5.61Q47.24 5.71 47.18 5.74L47.18 5.74L47.18 5.74Q47.13 5.76 47.07 5.76L47.07 5.76L47.07 5.76Q46.90 5.77 46.90 5.60ZM57.03 10.04L57.03 10.04L57.52 9.98L57.71 10.85L57.71 10.85Q57.82 11.33 57.89 11.41L57.89 11.41L57.89 11.41Q57.96 11.49 58.37 11.64L58.37 11.64L58.37 11.64Q59.21 11.95 60.10 11.95L60.10 11.95L60.10 11.95Q60.89 11.95 61.43 11.49L61.43 11.49L61.43 11.49Q61.96 11.04 61.96 10.26L61.96 10.26L61.96 10.26Q61.96 9.65 61.50 9.21L61.50 9.21L61.50 9.21Q61.02 8.76 60.17 8.30L60.17 8.30L59.60 7.98L59.60 7.98Q58.85 7.55 58.62 7.36L58.62 7.36L58.62 7.36Q58.26 7.08 57.94 6.59L57.94 6.59L57.94 6.59Q57.63 6.10 57.63 5.46L57.63 5.46L57.63 5.46Q57.63 4.39 58.47 3.68L58.47 3.68L58.47 3.68Q59.32 2.97 60.42 2.97L60.42 2.97L60.42 2.97Q60.70 2.97 61.05 3.04L61.05 3.04L61.05 3.04Q61.25 3.08 61.58 3.17L61.58 3.17L61.82 3.25L61.82 3.25Q61.92 3.25 61.96 3.16L61.96 3.16L61.96 3.16Q62.02 3.05 62.02 2.98L62.02 2.98L62.03 2.88L62.51 2.85L62.72 5.41L62.21 5.43L62.09 4.18L62.09 4.18Q61.35 3.62 60.18 3.62L60.18 3.62L60.18 3.62Q59.54 3.62 59.04 4.05L59.04 4.05L59.04 4.05Q58.56 4.47 58.56 5.12L58.56 5.12L58.56 5.12Q58.56 5.72 59.01 6.17L59.01 6.17L59.01 6.17Q59.44 6.60 60.31 7.08L60.31 7.08L61.08 7.50L61.08 7.50Q62.03 8.03 62.56 8.59L62.56 8.59L62.56 8.59Q63.10 9.15 63.10 9.92L63.10 9.92L63.10 9.92Q63.10 10.99 62.24 11.76L62.24 11.76L62.24 11.76Q61.37 12.54 59.92 12.54L59.92 12.54L59.92 12.54Q59.36 12.54 58.85 12.41L58.85 12.41L58.85 12.41Q58.35 12.29 58.30 12.29L58.30 12.29L58.30 12.29Q58.04 12.29 58.04 12.58L58.04 12.58L58.06 12.76L57.58 12.80L57.58 12.80Q57.52 12.41 57.03 10.04ZM81.18 3.64L80.79 3.64L80.81 3.08L84.03 3.08L84.03 3.08Q85.16 3.08 85.76 3.21L85.76 3.21L85.76 3.21Q86.41 3.37 86.87 3.75L86.87 3.75L86.87 3.75Q87.88 4.57 87.88 5.71L87.88 5.71L87.88 5.71Q87.88 6.43 87.40 7.04L87.40 7.04L87.40 7.04Q86.91 7.66 85.88 7.92L85.88 7.92L88.57 11.49L88.57 11.49Q88.87 11.87 89.17 11.87L89.17 11.87L89.77 11.87L89.80 12.41L87.77 12.41L84.77 8.10L84.60 8.10L84.60 8.10Q84.56 8.10 84.51 8.11L84.51 8.11L84.51 8.11Q84.45 8.11 84.44 8.11L84.44 8.11L84.44 8.11Q83.56 8.11 83.16 8.03L83.16 8.03L83.16 11.46L83.16 11.46Q83.16 11.76 83.30 11.81L83.30 11.81L83.30 11.81Q83.43 11.87 84.13 11.87L84.13 11.87L84.84 11.87L84.81 12.41L81.09 12.41L81.09 11.87L81.41 11.87L81.41 11.87Q81.87 11.87 81.94 11.81L81.94 11.81L81.94 11.81Q82.02 11.74 82.02 11.46L82.02 11.46L82.02 4.14L82.02 4.14Q82.02 3.82 81.83 3.73L81.83 3.73L81.83 3.73Q81.61 3.64 81.18 3.64L81.18 3.64ZM83.16 4.28L83.16 7.57L83.16 7.57Q83.34 7.70 84.05 7.71L84.05 7.71L84.05 7.71Q85.33 7.71 85.91 7.27L85.91 7.27L85.91 7.27Q86.50 6.84 86.50 5.92L86.50 5.92L86.50 5.92Q86.50 4.92 85.72 4.27L85.72 4.27L85.72 4.27Q84.96 3.64 83.58 3.64L83.58 3.64L83.58 3.64Q83.33 3.64 83.25 3.75L83.25 3.75L83.25 3.75Q83.17 3.84 83.16 4.28L83.16 4.28ZM98.14 3.64L97.55 3.64L97.56 3.08L101.08 3.08L101.08 3.64L100.84 3.64L100.84 3.64Q100.30 3.64 100.13 3.73L100.13 3.73L100.13 3.73Q99.99 3.81 99.99 4.28L99.99 4.28L99.99 11.22L99.99 11.22Q99.99 11.68 100.10 11.77L100.10 11.77L100.10 11.77Q100.21 11.87 100.74 11.87L100.74 11.87L101.29 11.87L101.30 12.41L97.72 12.41L97.71 11.87L98.07 11.87L98.07 11.87Q98.63 11.87 98.74 11.77L98.74 11.77L98.74 11.77Q98.85 11.67 98.85 11.25L98.85 11.25L98.85 4.14L98.85 4.14Q98.85 3.77 98.75 3.71L98.75 3.71L98.75 3.71Q98.64 3.64 98.14 3.64L98.14 3.64ZM109.08 3.64L109.04 3.08L112.82 3.08L112.82 3.08Q114.14 3.08 115.01 3.19L115.01 3.19L115.01 3.19Q115.83 3.29 116.52 3.69L116.52 3.69L116.52 3.69Q117.47 4.27 117.97 5.24L117.97 5.24L117.97 5.24Q118.47 6.21 118.47 7.39L118.47 7.39L118.47 7.39Q118.47 8.05 118.32 8.65L118.32 8.65L118.32 8.65Q118.17 9.29 117.78 9.98L117.78 9.98L117.78 9.98Q117.35 10.73 116.79 11.21L116.79 11.21L116.79 11.21Q116.16 11.76 115.19 12.08L115.19 12.08L115.19 12.08Q114.18 12.41 112.91 12.41L112.91 12.41L109.29 12.41L109.28 11.87L109.66 11.87L109.66 11.87Q110.17 11.87 110.28 11.79L110.28 11.79L110.28 11.79Q110.39 11.70 110.39 11.25L110.39 11.25L110.39 4.14L110.39 4.14Q110.39 3.77 110.29 3.71L110.29 3.71L110.29 3.71Q110.18 3.64 109.67 3.64L109.67 3.64L109.08 3.64ZM111.52 4.39L111.52 11.22L111.52 11.22Q111.52 11.67 111.69 11.77L111.69 11.77L111.69 11.77Q111.84 11.87 112.71 11.87L112.71 11.87L112.71 11.87Q113.76 11.87 114.56 11.61L114.56 11.61L114.56 11.61Q115.41 11.35 115.85 10.99L115.85 10.99L115.85 10.99Q116.34 10.58 116.65 10.05L116.65 10.05L116.65 10.05Q116.95 9.52 117.08 8.96L117.08 8.96L117.08 8.96Q117.20 8.41 117.20 7.82L117.20 7.82L117.20 7.82Q117.20 7.03 116.94 6.34L116.94 6.34L116.94 6.34Q116.67 5.65 116.14 5.05L116.14 5.05L116.14 5.05Q115.61 4.46 114.70 4.09L114.70 4.09L114.70 4.09Q113.78 3.73 112.62 3.73L112.62 3.73L112.10 3.73L112.10 3.73Q111.73 3.73 111.63 3.85L111.63 3.85L111.63 3.85Q111.52 3.99 111.52 4.39L111.52 4.39ZM126.45 3.64L126.44 3.08L133.65 3.08L133.65 3.08Q133.66 4.14 133.72 5.28L133.72 5.28L133.17 5.30L133.17 5.30Q133.16 4.66 133.10 4.25L133.10 4.25L133.10 4.25Q133.06 3.89 133.01 3.80L133.01 3.80L133.01 3.80Q132.95 3.71 132.84 3.69L132.84 3.69L132.84 3.69Q132.74 3.68 132.15 3.68L132.15 3.68L129.77 3.68L129.77 3.68Q129.23 3.68 129.08 3.77L129.08 3.77L129.08 3.77Q128.96 3.86 128.96 4.33L128.96 4.33L128.96 6.28L128.96 6.28Q128.96 6.69 129.01 6.76L129.01 6.76L129.01 6.76Q129.08 6.84 129.42 6.84L129.42 6.84L131.54 6.84L131.54 6.84Q131.90 6.84 131.98 6.73L131.98 6.73L131.98 6.73Q132.06 6.63 132.07 6.14L132.07 6.14L132.07 5.61L132.58 5.63L132.58 8.97L132.07 8.97L132.07 8.24L132.07 8.24Q132.07 7.66 132.00 7.57L132.00 7.57L132.00 7.57Q131.91 7.46 131.56 7.46L131.56 7.46L129.47 7.46L129.47 7.46Q129.13 7.46 129.05 7.54L129.05 7.54L129.05 7.54Q128.96 7.63 128.96 7.89L128.96 7.89L128.96 11.20L128.96 11.20Q128.96 11.57 129.05 11.67L129.05 11.67L129.05 11.67Q129.13 11.77 129.40 11.77L129.40 11.77L129.40 11.77Q132.32 11.75 132.85 11.69L132.85 11.69L132.85 11.69Q133.37 11.63 133.45 11.38L133.45 11.38L133.46 11.36L133.46 11.35L133.69 10.17L134.17 10.25L133.82 12.41L126.72 12.41L126.72 11.87L127.09 11.87L127.09 11.87Q127.65 11.87 127.73 11.80L127.73 11.80L127.73 11.80Q127.83 11.72 127.83 11.33L127.83 11.33L127.83 4.24L127.83 4.24Q127.83 3.82 127.67 3.73L127.67 3.73L127.67 3.73Q127.50 3.64 126.85 3.64L126.85 3.64L126.45 3.64Z"></path></g></svg>